<svg width="327" height="352" viewBox="0 0 327 352" fill="none" xmlns="http://www.w3.org/2000/svg">
<path fill-rule="evenodd" clip-rule="evenodd" d="M279.281 187.002C277.799 175.367 279.718 151.047 279.846 149.569C280.659 140.229 275.759 103.343 266.496 106.742C250.958 95.7551 230.262 93.329 210.91 92.1701C170.713 89.7625 127.951 95.2895 96.9122 119.452C81.5622 132 66.6182 150.25 67.8194 169.253C53.8729 187.265 34.2115 211.974 51.5882 233.031C57.4949 239.759 66.8825 242.265 74.3027 247.36C89.2276 258.112 98.5913 273.544 113.658 284.232C153.574 316.27 221.353 322.963 260.57 286.522C290.897 260.131 285.993 220.648 280.659 187.002C277.073 164.382 282.174 209.701 279.281 187.002Z" fill="white"/>
<path fill-rule="evenodd" clip-rule="evenodd" d="M157.213 42.8286C167.964 40.891 179.003 39.6853 189.981 40.0482L190.827 40.0776C199.087 40.3725 209.548 41.0247 216.754 45.315C217.169 44.9435 217.835 44.7528 218.44 45.0105C227.003 48.6613 236.422 51.3009 245.438 53.9238C254.413 56.5338 263.724 58.2568 273.131 58.9513C276.67 59.2127 279.699 62.6261 277.458 65.6876C276.925 66.4172 276.405 67.1541 275.888 67.8929C276.753 67.8123 277.618 67.7292 278.483 67.6511C281.329 67.3952 284.173 70.1086 284.004 72.5839C283.899 74.1408 283.711 75.6792 283.433 77.1992C284.517 77.1789 285.594 77.3241 286.636 77.7172C291.908 79.7059 291.541 85.3153 291.147 89.5831C290.6 95.5056 288.12 101.779 283.515 106.211C286.953 109.401 289.387 113.21 290.839 117.733C291.892 121.037 292.478 124.555 292.189 127.994L292.096 129.023C291.739 132.755 291.027 136.886 288.022 139.571C286.479 140.955 284.579 141.459 282.767 141.299C283.862 149.899 284.565 158.548 285.226 167.166L285.536 171.285C287.011 191.203 288.119 211.25 287.829 231.201C287.56 249.846 283.435 267.943 270.633 283.081C258.973 296.867 242.231 307.029 223.292 310.892C213.086 312.977 202.666 313.125 192.336 311.796C187.329 311.15 182.288 310.16 177.536 308.597C172.275 306.863 168.494 304.31 164.954 300.484C163.28 298.669 164.086 294.806 167.419 295.169C172.462 295.715 177.064 296.373 181.898 297.705L182.591 297.9C187.405 299.278 192.391 300.305 197.425 300.742C207.735 301.634 218.202 300.736 228.079 297.943C244.16 293.391 258.009 283.248 266.886 270.502C277.423 255.394 278.615 238.244 278.462 220.873C278.299 201.811 277.605 182.738 276.472 163.696L276.279 160.522C275.68 150.723 275.102 140.918 274.593 131.113C274.434 128.037 274.193 124.937 273.759 121.867C269.786 119.788 266.225 116.922 263.904 113.384C259.242 115.107 254.338 116.349 249.827 117.34C239.377 119.635 228.527 120.193 217.89 118.755C215.021 119.814 212.095 120.745 209.124 121.545C208.321 121.863 207.518 122.176 206.716 122.482C199.553 125.22 192.287 127.539 184.726 129.236L182.869 129.65C178.89 130.526 174.567 131.389 170.333 131.66C169.637 131.9 168.886 132.103 168.066 132.281C164.21 133.118 160.208 133.382 156.256 133.087C152.405 132.798 149.623 129.323 151.744 126.069C153.294 123.694 154.858 121.326 156.435 118.964C150.946 121.006 145.278 122.704 139.562 124.143C133.791 125.595 127.937 126.819 122.076 127.945C118.942 128.541 115.796 129.07 112.669 129.667C110.431 130.092 106.994 130.313 105.169 131.629C103.151 133.075 102.58 136.446 101.815 138.525C100.809 141.225 99.8657 143.938 99.0049 146.682C97.2907 152.156 95.8858 157.711 94.7977 163.321C93.7096 168.937 92.9789 174.609 92.5726 180.299C92.1669 185.983 92.3453 191.703 91.6917 197.363C91.3398 200.364 87.7318 201.908 85.0666 199.811C84.7539 199.565 84.4388 199.316 84.1267 199.064L83.6617 198.685C81.3814 196.84 79.1707 194.884 77.3464 192.681C77.0158 192.275 76.6991 191.851 76.4029 191.42C76.3547 191.42 76.3134 191.408 76.2652 191.377L75.7593 191.037C70.1895 187.334 60.8842 182.507 55.4531 188.658C53.7225 190.618 52.8364 193.114 52.101 195.521L50.8106 199.83C49.976 202.642 49.1905 205.471 48.7309 208.349C47.691 214.795 48.2144 222.226 53.1805 227.393C55.1639 229.46 57.898 230.937 60.9481 231.324C62.6499 231.533 64.3303 231.275 66.0176 231.084C67.7324 230.893 69.3845 231.201 71.1 231.053C73.8272 230.814 75.0187 233.729 73.9994 235.562C73.4485 236.547 72.8004 237.395 72.0642 238.115C72.6558 238.57 73.2212 239.062 73.7653 239.579C75.3768 240.041 76.8223 241.031 77.9043 242.341C78.7789 243.399 79.2327 244.549 79.3092 245.761C79.4049 246.063 79.4875 246.37 79.564 246.684L81.0415 248.826C81.3664 249.296 81.6902 249.76 82.015 250.215C85.7752 255.505 89.9493 259.983 95.1351 264.203C100.128 268.263 105.547 271.898 110.238 276.253L110.791 276.771C115.163 280.886 119.773 285.869 118.061 291.853C117.621 293.391 115.217 294.498 113.647 293.459C108.599 290.112 106.057 284.81 101.774 280.75C97.3658 276.567 92.483 272.809 88.0624 268.638C83.8813 264.701 80.5825 260.242 78.0971 255.333C77.1047 256.311 75.6591 257.006 73.6551 257.277C70.2116 257.738 67.0017 255.936 65.501 253.272C64.5362 253.653 63.5521 253.998 62.5597 254.269C57.3394 255.696 54.0551 250.51 56.0247 246.678C57.0777 244.623 58.3931 242.839 60.026 241.338C54.9221 240.711 49.7295 238.355 46.3756 235.415C37.9605 228.027 36.8035 216.924 38.6974 207.051C39.7029 201.816 41.4377 196.52 43.6904 191.605C44.0823 190.75 44.503 189.889 44.9638 189.04C44.709 189.034 44.4473 188.935 44.282 188.745C42.76 186.887 40.9081 185.367 39.778 183.288C38.7381 181.381 37.5818 179.45 36.7615 177.463C35.0749 173.397 34.2485 168.808 33.6976 164.508C32.5612 155.706 33.0013 146.958 34.5102 138.211C37.0783 123.313 43.282 109.055 52.4215 96.5446C51.9239 96.311 51.447 96.0291 51.0026 95.6957L50.7832 95.5247L50.4264 95.2368C47.8184 93.1287 48.0436 89.1777 50.4264 87.0426L51.179 86.3688C52.132 85.5232 52.9538 84.8532 54.4931 83.9325C54.7204 83.7965 54.9524 83.6686 55.1873 83.5493C54.3815 82.2193 54.1019 80.6643 54.6632 78.9487C56.6191 72.972 66.2469 73.1836 72.3493 75.79C79.1005 70.4082 86.5865 65.7362 94.7006 61.9531C114.026 52.9476 135.877 46.6671 157.213 42.8286ZM57.3197 200.241C60.9284 199.189 65.7216 201.398 68.9653 202.727C73.0768 204.412 76.5753 206.903 79.9636 209.536C81.6509 210.852 81.9532 213.005 81.5338 214.845C81.4918 215.029 81.4512 215.22 81.4023 215.411C80.9546 217.373 78.5029 218.917 76.3336 218.861C71.7951 218.751 69.6334 215.251 67.0639 212.286C66.7615 212.765 66.3828 213.208 65.9138 213.541L65.5971 213.762C64.5309 214.487 63.3556 215.067 61.9469 215.011C60.9483 214.968 59.9918 214.74 59.1096 214.328C56.9058 213.288 55.9354 210.742 56.5339 208.669C56.9058 207.365 57.7597 206.343 58.8754 205.636L58.4595 205.382C57.5697 204.829 56.7581 204.246 56.1257 203.385L55.9829 203.182H56.038C55.3493 202.124 55.7977 200.684 57.3197 200.241Z" fill="black"/>
<path fill-rule="evenodd" clip-rule="evenodd" d="M162.247 268.556C167.834 256.889 180.029 248.314 194.07 245.179C204.381 242.883 215.202 242.956 225.713 243.868C231.219 244.342 237.126 244.73 242.316 246.553C246.748 248.11 250.359 251.054 253.075 254.509C256.307 258.603 258.506 263.29 260.05 268.093C260.269 268.776 260.475 269.464 260.667 270.155C259.996 273.779 258.571 276.863 254.805 279.142C251.13 281.367 246.745 282.277 242.374 282.6C241.945 282.417 241.531 282.228 241.151 282.035C234.34 278.559 229.545 270.346 220.948 271.457C213.275 272.45 208.225 281.055 203.662 286.1C189.016 287.621 174.381 283.699 162.464 276.234C161.859 273.679 161.824 271.103 162.247 268.556ZM270.622 259.706C269.45 256.775 267.974 253.937 266.225 251.263C260.443 242.421 251.565 235.376 241.027 231.348C216.098 221.834 183.842 228.541 163.71 244.145C156.833 249.479 149.879 257.317 147.776 265.748C147.148 265.859 146.556 266.151 146.068 266.561C131.522 258.398 116.543 250.545 104.822 239.231C96.3106 231.01 90.3901 221.281 86.7648 210.59C86.4684 209.71 84.8763 209.839 84.9246 210.812C84.9383 211.04 84.9521 211.268 84.9659 211.495C84.8143 211.077 84.0975 211.292 84.0424 211.699C82.0918 224.686 79.652 238.455 81.8989 251.509C83.2429 259.299 87.2128 265.002 92.5198 271.16C98.2059 277.761 104.643 283.9 111.225 289.788C115.402 293.525 119.765 297.835 124.879 300.576C130.827 303.759 137.574 306.18 143.922 308.636C150.38 311.143 156.935 313.458 163.613 315.466C176.964 319.493 190.762 322.276 204.801 323.496C216.043 324.468 228.89 325.528 239.662 321.759C247.919 318.871 254.584 313.65 259.871 307.368C265.626 300.526 270.175 292.734 272.69 284.516C275.304 275.98 271.172 261.082 270.622 259.706Z" fill="black"/>
<path fill-rule="evenodd" clip-rule="evenodd" d="M225.043 261.73C219.959 263.042 214.502 263.16 209.319 261.804C204.619 260.575 199.793 257.869 196.333 254.289C193.26 251.108 191.27 247.243 191.348 243.117C191.357 242.646 191.546 242.252 191.837 241.947C192.15 241.619 192.587 241.393 193.055 241.295C193.537 241.194 194.046 241.23 194.48 241.405C194.873 241.564 195.209 241.834 195.419 242.229C195.951 242.851 196.48 243.465 197.012 244.061C201.287 248.766 205.426 252.282 211.854 253.543C215.342 254.227 218.825 253.924 222.021 252.879C225.442 251.762 228.535 249.797 230.958 247.282C232.053 246.145 233.346 245.681 234.611 245.674C236.044 245.665 237.46 246.258 238.527 247.207C239.575 248.139 240.277 249.406 240.341 250.731C240.397 251.894 239.971 253.109 238.839 254.193C235.108 257.764 230.274 260.379 225.043 261.73ZM224.886 202.805C230.097 205.628 238.038 212.212 232.432 219.212C225.832 225.384 216.331 218.307 211.649 215.107C207.307 212.627 202.429 219.006 206.458 221.902C240.291 244.229 254.021 203.543 227.522 199.485C224.604 199.038 223.52 201.931 224.886 202.805ZM176.135 190.381C174.46 189.426 172.489 189.099 170.306 189.984C168.599 190.676 165.606 192.982 163.523 196.013C162.098 198.087 161.088 200.519 161.298 203.053C161.347 203.642 161.103 204.076 160.718 204.397C160.414 204.65 159.975 204.836 159.46 204.894C159.022 204.944 158.532 204.899 158.133 204.788C157.376 204.578 156.974 204.139 156.823 203.782C155.365 200.329 155.993 196.477 157.628 193.001C159.834 188.311 163.839 184.382 166.464 183.115C170.955 180.947 176.254 180.847 180.751 183.056C184.58 184.936 186.974 187.972 189.355 191.066C189.861 191.724 190.363 192.377 190.882 193.018C191.923 194.303 192.026 195.578 191.623 196.671C191.177 197.882 190.039 198.904 188.615 199.439C187.3 199.933 185.773 200.003 184.422 199.495C183.281 199.066 182.233 198.229 181.571 196.81C180.454 194.42 178.595 191.783 176.135 190.381ZM261.206 195.698C260.058 196.231 259.161 196.392 257.888 196.052C257.185 195.864 256.489 195.503 255.945 195.017C255.405 194.536 255.016 193.938 254.864 193.274C254.492 191.637 253.487 190.104 252.054 189.104C250.83 188.25 249.284 187.798 247.57 188.053C245.72 188.328 243.958 189.386 242.744 190.632C242.338 191.05 242.02 191.523 241.7 191.994C241.102 192.874 240.521 193.692 239.696 194.338C239.383 194.584 238.912 194.755 238.456 194.755C238.27 194.755 238.082 194.728 237.903 194.678C236.062 193.031 235.708 191.781 235.767 190.542C235.829 189.242 236.404 187.926 237.333 186.699C239.512 183.819 243.65 181.457 246.442 180.922C250.266 180.19 254.063 181.069 257.107 182.973C260.24 184.931 262.562 187.972 263.285 191.399C263.459 192.225 263.385 193.115 263.033 193.888C262.688 194.643 262.088 195.289 261.206 195.698ZM184.568 159.675C182.273 161.668 179.557 161.977 176.81 162.251C175.283 162.405 174.064 162.529 172.865 162.77C169.569 163.434 166.31 164.432 163.337 165.871C160.23 167.375 156.844 169.189 154.407 171.512C153.828 172.065 153.282 172.645 152.735 173.226C152.236 173.757 151.756 174.267 151.25 174.759C150.668 175.324 150.116 175.917 149.567 176.508C149.227 177.006 149.16 177.129 149.092 177.257C148.989 177.449 148.869 177.663 148.733 177.893C148.545 178.209 148.326 178.554 148.096 178.867C147.714 179.439 147.509 179.597 147.332 179.667C147.038 179.784 146.759 179.842 146.489 179.811C146.235 179.781 145.996 179.673 145.76 179.495C144.582 178.608 144.234 177.152 144.27 175.606C144.324 173.261 145.295 170.664 146.189 169.068C148.27 165.359 151.155 161.503 154.624 158.735C158.583 155.575 162.914 153.183 167.888 151.534C170.979 150.509 174.559 149.569 177.927 149.688C180.351 149.773 182.665 150.415 184.576 152.019C185.75 153.004 186.313 154.405 186.313 155.804C186.313 157.232 185.728 158.668 184.568 159.675ZM265.872 177.923C265.727 178.136 265.525 178.283 265.3 178.371C265.064 178.464 264.801 178.491 264.549 178.453C264.297 178.415 264.059 178.313 263.869 178.158C263.688 178.009 263.549 177.812 263.487 177.571C261.964 171.607 259.006 167.169 252.692 164.308C249.586 162.9 246.014 162.006 242.633 161.293C241.651 161.085 240.612 160.951 239.567 160.815C236.29 160.389 232.99 159.9 230.854 157.54C229.567 156.118 229.026 154.299 229.332 152.636C229.619 151.07 230.646 149.634 232.512 148.773C237.159 146.632 242.933 148.733 247.625 150.523C247.973 150.656 248.315 150.786 248.649 150.912C253.237 152.638 257.422 154.917 260.862 158.176C263.592 160.761 266.121 164.583 267.14 168.515C267.987 171.786 267.788 175.125 265.872 177.923Z" fill="black"/>
<path fill-rule="evenodd" clip-rule="evenodd" d="M281.374 205.479C276.727 211.043 268.113 212.815 260.167 212.203C243.03 210.733 237.637 193.386 237.075 179.902C248.567 182.784 236.103 162.377 275.385 160.133C289.233 159.105 285.415 166.559 291.533 172.005C291.408 183.436 289.273 195.856 281.374 205.479ZM199.75 192.345C189.633 234.576 134.23 224.53 128.41 186.462C133.784 183.082 132.368 174.734 139.045 171.709C149.626 165.683 162.853 165.941 174.869 166.082C190.228 167.023 194.605 172.694 202.495 178.881C202.115 183.013 201.021 187.911 199.75 192.345ZM303.321 153.139C302.753 153.055 302.184 152.976 301.616 152.901C301.172 152.677 300.651 152.504 300.045 152.4C298.661 152.087 297.287 151.876 295.915 151.762C276.224 147.812 230.67 153.42 228.79 168.398C222.519 170.263 217.093 168.593 209.826 168.759C204.293 148.149 108.652 151.058 104.052 163.483C104.035 163.479 104.017 163.475 103.999 163.47C99.5797 162.251 93.0641 162.545 88.0054 162.352C77.204 162.15 66.3902 163.008 55.822 165.039C36.0322 167.842 9.02357 171.124 22.7871 193.151C22.7898 193.154 22.7919 193.159 22.7953 193.162L22.7974 193.16C25.1694 195.328 29.195 193.582 29.3448 190.649C24.7174 180.214 35.1689 178.961 43.2104 175.962C63.2196 169.555 83.5912 168.666 104.286 170.648C105.843 172.282 108.205 173.707 110.702 174.452C124.539 176.5 117.247 185.648 125.993 186.978C124.386 218.868 167.824 236.275 192.993 215.312C203.042 206.555 205.438 193.582 207.768 181.889C208.999 181.643 209.783 181.042 210.24 180.248C213.203 177.611 215.064 175.176 220.923 174.452C226.782 173.729 231.292 175.181 231.902 175.626C232.056 175.902 232.221 176.179 232.413 176.456C232.68 176.869 233.045 177.198 233.459 177.457C227.673 209.212 255.332 229.295 283.255 212.825C295.387 202.653 297.951 187.079 298.458 173.178C300.102 172.293 301.144 170.579 300.574 168.423C299.79 165.452 301.63 162.88 304.56 161.588C308.367 159.911 307.694 153.785 303.321 153.139Z" fill="black"/>
</svg>
